<?xml version="1.0" standalone="no"?><svg xmlns="http://www.w3.org/2000/svg" viewBox="0 0 1440 320"><path fill="#fafafa" fill-opacity="1" d="M0,96L34.3,85.3C68.6,75,137,53,206,85.3C274.3,117,343,203,411,208C480,213,549,139,617,117.3C685.7,96,754,128,823,149.3C891.4,171,960,181,1029,208C1097.1,235,1166,277,1234,293.3C1302.9,309,1371,299,1406,293.3L1440,288L1440,0L1405.7,0C1371.4,0,1303,0,1234,0C1165.7,0,1097,0,1029,0C960,0,891,0,823,0C754.3,0,686,0,617,0C548.6,0,480,0,411,0C342.9,0,274,0,206,0C137.1,0,69,0,34,0L0,0Z"></path></svg>