<svg id="Capa_1" enable-background="new 0 0 512 512" height="512" viewBox="0 0 512 512" width="512" xmlns="http://www.w3.org/2000/svg"><g><path d="m487.377 339.42c.851-2.604 1.303-5.342 1.303-8.116 0-122.197.928-116.398-2.446-122.857 5.996-3.829 9.991-10.527 9.991-18.154 0-55.459-25.192-106.745-69.117-140.708-3.276-2.535-7.987-1.931-10.521 1.345-2.534 3.277-1.932 7.987 1.345 10.521 40.223 31.101 63.292 78.063 63.292 128.842 0 3.607-2.935 6.542-6.542 6.542h-7.546-422.109-7.711c-3.607 0-6.542-2.935-6.542-6.543 0-89.749 73.016-162.765 162.765-162.765h124.923c24.936 0 48.86 5.488 71.108 16.311 3.723 1.812 8.212.262 10.025-3.463 1.812-3.725.262-8.213-3.463-10.025-24.31-11.826-50.442-17.823-77.67-17.823h-124.923c-98.02 0-177.765 79.745-177.765 177.766 0 7.68 4.053 14.416 10.119 18.231-1.529 2.957-2.408 6.302-2.408 9.854v9.362c0 9.214 5.825 17.072 13.977 20.145-8.722 8.583-14.142 20.511-14.142 33.685 0 13.232 5.47 25.205 14.259 33.796-8.239 3.216-14.094 11.233-14.094 20.597v3.547c-13.178 1.374-23.485 12.545-23.485 26.079 0 10.936 6.731 20.325 16.265 24.254 3.562 40.069 27.33 76.283 63.031 95.424 3.651 1.958 8.196.584 10.154-3.066 1.958-3.651.584-8.197-3.066-10.154-30.063-16.118-50.473-46.058-54.76-79.526 8.768 2.396 16.623 10.994 40.553 10.994 16.896 0 25.666-4.219 32.924-7.792 24.424-12.019 22.185 7.792 58.984 7.792 28.2 0 33.41-11.702 45.948-11.702 12.589 0 17.726 11.702 45.954 11.702 18.163 0 26.482-4.725 35.041-8.82 3.688-1.764 6.619-2.882 10.913-2.882 12.613 0 17.706 11.702 45.957 11.702 16.054 0 24.558-3.674 32.924-7.792 22.86-11.248 22.262 5.374 52.45 7.557 27.729 2.005 37.714-7.917 46.54-10.594-6.608 52.137-50.875 91.785-104.412 91.785h-239.357c-6.37 0-12.75-.573-18.961-1.702-4.073-.74-7.979 1.962-8.72 6.038-.741 4.075 1.962 7.979 6.038 8.72 7.094 1.29 14.376 1.944 21.644 1.944h239.358c31.204 0 60.78-11.898 83.281-33.503 21.081-20.242 33.912-47.019 36.495-75.905 9.828-3.788 16.823-13.327 16.823-24.475-.001-13.92-10.907-25.338-24.624-26.168zm-448.893-121.042c0-3.607 2.935-6.542 6.542-6.542h422.111c3.607 0 6.542 2.935 6.542 6.542v112.925c0 6.525-5.453 11.494-11.775 11.21-5.884-.277-10.671-5.543-10.671-11.739v-9.418-.074-60.077c0-14.846-12.078-26.923-26.924-26.923s-26.923 12.078-26.923 26.923c0 4.714.866 10.63-5.283 14.485-7.721 4.841-17.164-1.138-17.164-10.056v-23.852c0-4.142-3.358-7.5-7.5-7.5h-296.833-25.58c-3.607 0-6.542-2.935-6.542-6.542zm406.217 132.119c-8.735 2.136-14.9-1.936-20.649-4.669-6.631-3.153-15.216-6.462-30.198-6.462-17.091 0-25.87 4.32-32.924 7.792-20.869 10.271-22.071-2.63-45.218-6.684-10.119-1.772-25.261-1.836-37.683 2.693-14.846 5.413-17.773 12.493-35.086 3.988-7.062-3.47-15.851-7.789-32.909-7.789-17.091 0-25.87 4.321-32.923 7.792-25.533 12.566-23.26-10.361-65.011-7.6-23.156 1.531-28.223 11.51-39.922 11.51-10.723 0-15.416-8.059-33.693-10.837v-4.268c0-3.918 3.188-7.106 7.106-7.106h25.016 365.627c0 8.353 1.959 15.541 8.467 21.64zm-374.095-101.214h289.334v16.352c0 14.811 11.709 26.798 26.318 26.752 13.658-.035 24.783-10.492 26.013-23.848.148-1.607.115-2.032.115-7.333 0-6.575 5.349-11.923 11.924-11.923s11.924 5.349 11.924 11.923v52.651h-365.628c-17.803 0-32.287-14.484-32.287-32.287s14.484-32.287 32.287-32.287zm416.602 127.428c-.02.002-.04.002-.06.004-.213.026-.402.042-.588.058-.247.017-.493.037-.744.038-.012 0-.027.002-.039.002-8.582 0-14.209 2.771-19.652 5.452-5.102 2.513-14.714 7.721-33.263 5.937-9.082-.874-14.285-3.439-19.348-5.934-5.44-2.682-11.066-5.455-19.66-5.455-15.245 0-20.096 8.326-35.086 10.871-6.26 1.063-14.032 1.053-19.824.286-16.631-2.202-21.162-11.158-37.002-11.158-18.435 0-20.683 11.702-45.954 11.702-25.291 0-27.465-11.702-45.954-11.702-18.526 0-20.573 11.702-45.948 11.702-25.292 0-27.466-11.702-45.953-11.702-18.467 0-20.643 11.702-45.955 11.702-25.284 0-27.479-11.702-45.954-11.702-.048 0-.105-.006-.155-.007-.221-.003-.439-.018-.657-.033-.274-.025-.568-.061-.896-.111-.047-.007-.095-.007-.142-.014-5.31-.886-9.374-5.5-9.374-11.058 0-6.188 5.035-11.223 11.223-11.223 27.362 0 30.812 15.624 53.216 10.978 13.135-2.724 16.909-10.978 38.693-10.978 13.571 0 20.038 3.177 26.293 6.251 5.457 2.681 11.096 5.451 19.66 5.451 18.47 0 20.636-11.702 45.948-11.702 25.292 0 27.467 11.702 45.954 11.702 18.508 0 20.604-11.702 45.954-11.702 13.573 0 20.041 3.177 26.297 6.251 13.413 6.589 22.934 8.06 39.314-.001 1.171-.576 2.349-1.156 3.58-1.718 5.336-2.435 11.671-4.532 22.721-4.532 13.626 0 20.07 3.176 26.302 6.248 5.44 2.682 11.066 5.455 19.66 5.455 18.465 0 20.699-11.702 45.962-11.702 6.188 0 11.223 5.035 11.223 11.223 0 5.702-4.278 10.415-9.792 11.121z"/><path d="m264.315 66.515v-17.684c0-4.142-3.358-7.5-7.5-7.5s-7.5 3.358-7.5 7.5v17.684c0 4.142 3.358 7.5 7.5 7.5s7.5-3.358 7.5-7.5z"/><path d="m335.89 52.445c-3.652 1.954-5.029 6.499-3.076 10.151l8.573 16.027c1.352 2.526 3.942 3.964 6.62 3.964 1.194 0 2.405-.286 3.531-.888 3.652-1.954 5.029-6.499 3.076-10.151l-8.573-16.027c-1.955-3.653-6.5-5.031-10.151-3.076z"/><path d="m164.017 55.873-6.938 16.617c-1.596 3.822.209 8.215 4.031 9.811.944.395 1.923.581 2.887.581 2.935 0 5.722-1.734 6.924-4.612l6.938-16.617c1.596-3.822-.209-8.215-4.031-9.811-3.821-1.596-8.215.209-9.811 4.031z"/><path d="m399.563 84.1c-2.606 3.219-2.108 7.942 1.111 10.548l15.449 12.504c1.388 1.124 3.057 1.671 4.714 1.671 2.186 0 4.352-.951 5.834-2.782 2.606-3.219 2.108-7.942-1.111-10.548l-15.449-12.504c-3.218-2.606-7.942-2.11-10.548 1.111z"/><path d="m98.572 82.988-15.449 12.504c-3.22 2.606-3.717 7.329-1.111 10.548 1.482 1.832 3.648 2.782 5.834 2.782 1.657 0 3.326-.547 4.714-1.671l15.449-12.504c3.22-2.606 3.717-7.329 1.111-10.548-2.606-3.22-7.329-3.717-10.548-1.111z"/><path d="m217.923 89.381-12.504 12.504c-4.739 4.739-1.317 12.803 5.303 12.803 4.02 0 4.502-1.396 17.807-14.701 2.929-2.929 2.929-7.678 0-10.606-2.928-2.929-7.677-2.928-10.606 0z"/><path d="m294.217 89.381-12.504 12.504c-4.739 4.739-1.317 12.803 5.303 12.803 4.02 0 4.502-1.396 17.807-14.701 2.929-2.929 2.929-7.678 0-10.606-2.928-2.929-7.677-2.928-10.606 0z"/><path d="m384.37 118.575c-3.95-1.256-8.166.923-9.422 4.871l-5.474 17.191c-1.544 4.849 2.089 9.778 7.148 9.778 3.178 0 6.129-2.036 7.145-5.226l5.474-17.191c1.257-3.948-.924-8.166-4.871-9.423z"/><path d="m125.415 119.168c-3.812 1.62-5.589 6.023-3.969 9.836l7.009 16.492c1.213 2.855 3.987 4.568 6.906 4.568 5.344 0 9.006-5.478 6.899-10.436l-7.009-16.492c-1.621-3.81-6.023-5.589-9.836-3.968z"/><path d="m240.438 143.658c0 4.142 3.358 7.5 7.5 7.5h17.684c4.142 0 7.5-3.358 7.5-7.5s-3.358-7.5-7.5-7.5h-17.684c-4.142 0-7.5 3.358-7.5 7.5z"/></g></svg>