<?xml version="1.0" encoding="UTF-8"?>
<svg xmlns="http://www.w3.org/2000/svg" id="Layer_1" data-name="Layer 1" viewBox="0 0 512 512" width="512" height="512"><path d="M437.862,347.3a92.656,92.656,0,0,0-67.02-86.589l-5.333-1.536-8.333-16.835A6,6,0,0,0,351.8,239H303V218.3c16-13,27.227-32.636,28.506-54.8a24.189,24.189,0,0,0,14.126-27.615A18.623,18.623,0,0,0,334,122.465V98.271l.677-1.451a16.309,16.309,0,0,0,3.492-12.508,91.536,91.536,0,0,0-6.028-22.359c-12.592-30.659-42.472-50.47-76.108-50.47S192.52,31.311,179.911,62a91.819,91.819,0,0,0-6.032,22.433,16.269,16.269,0,0,0,3.605,12.742L178,98.364v24.08a18.632,18.632,0,0,0-11.652,13.439,24.041,24.041,0,0,0,14.159,27.633C181.789,185.657,193,205.266,209,218.269V239H160.2a6,6,0,0,0-5.377,3.34L146.5,259.16l-5.339,1.535a92.615,92.615,0,0,0-67.021,86.544c0,.039,0,.079,0,.118l-.928,132A21.423,21.423,0,0,0,79.3,494.551,21.091,21.091,0,0,0,94.208,501H417.792a21.091,21.091,0,0,0,14.905-6.449,20.583,20.583,0,0,0,6.095-14.828l-.928-132.245C437.864,347.439,437.863,347.339,437.862,347.3Zm-11.316,97.148a30.586,30.586,0,0,0-15.449-5.494L383,436.907V413h43.325ZM348.074,251l19.3,39H262V251ZM285,302v27H230V302Zm-64-63V226.1a76.912,76.912,0,0,0,35.024,8.6A73.9,73.9,0,0,0,291,226.122V239ZM185.766,86.056a79.786,79.786,0,0,1,5.239-19.5c10.752-26.166,36.273-43.074,65.017-43.074s54.262,16.89,65,43.03a79.51,79.51,0,0,1,5.216,19.425,4.317,4.317,0,0,1-1.045,3.45,4.48,4.48,0,0,1-3.414,1.526L190.232,91h0a4.48,4.48,0,0,1-3.415-1.522A4.238,4.238,0,0,1,185.766,86.056ZM317.8,102.705,310.679,116H201.321l-7.068-13.307ZM192,159.1v-.106a5.818,5.818,0,0,0-4.753-5.91,11.6,11.6,0,0,1-9.574-11.54,11.759,11.759,0,0,1,.389-2.8,7.253,7.253,0,0,1,6.573-5.612A5.926,5.926,0,0,0,190,127.151v-5.99l2.279,3.877A5.961,5.961,0,0,0,197.7,128H314.3a5.924,5.924,0,0,0,5.4-2.962l2.3-3.969v6.087a5.925,5.925,0,0,0,5.343,5.973,7.3,7.3,0,0,1,6.586,5.611,11.773,11.773,0,0,1,.314,2.8,11.532,11.532,0,0,1-9.471,11.536A5.844,5.844,0,0,0,320,158.983v.112c0,35.069-28.932,63.6-63.995,63.6S192,194.164,192,159.1ZM85.675,413H129v24.061l-23.4,2.121a36.367,36.367,0,0,0-20.171,8.232ZM139,489H94.208a9.183,9.183,0,0,1-6.388-2.9,8.77,8.77,0,0,1-2.612-6.335L85.257,473h.269c0-12,8.9-20.572,21.172-21.695l22.3-2.119v19.085A5.729,5.729,0,0,0,134.729,474H139Zm-9.648-195.2a5.976,5.976,0,0,0-.352,4.426V401H85.759l.376-53.543a80.561,80.561,0,0,1,53.046-73.515ZM361,489H151V474H361ZM232,462V427.615c1,1.063,2.966,1.385,4.5,1.385h.049a5.864,5.864,0,0,0,4.283-1.652l6.194-6.241,6.1,6.328a5.99,5.99,0,0,0,8.612.028l6.1-6.287,6.194,6.169A5.864,5.864,0,0,0,278.327,429h.049A4.453,4.453,0,0,0,282,427.615V462Zm139,0H294V412.589a5.742,5.742,0,0,0-9.985-4.131l-5.82,6.194-6.115-6.059A5.747,5.747,0,0,0,267.827,407h-.016a5.8,5.8,0,0,0-4.29,1.616l-6.081,6.164-6.081-6.113a5.842,5.842,0,0,0-4.29-1.667h-.016a5.819,5.819,0,0,0-4.283,1.593l-6.146,6.162-5.88-6.246a6.323,6.323,0,0,0-6.771-1.467A6.148,6.148,0,0,0,220,412.589V462H141V302h25a6,6,0,0,0,0-12H144.623l19.3-39H250v39H206a6,6,0,0,0,0,12h12v33.181A6.029,6.029,0,0,0,224.206,341h66.468c3.314,0,6.326-2.506,6.326-5.819V302h74Zm32.1-168.465a80.3,80.3,0,0,1,22.77,53.923L426.241,401H383V298.226a5.973,5.973,0,0,0-.352-4.425l-9.821-19.843A80.752,80.752,0,0,1,403.1,293.535ZM424.18,486.1a9.183,9.183,0,0,1-6.388,2.9H373V474h4.271A5.729,5.729,0,0,0,383,468.271V448.947l27.221,2c8.543.625,15.594,7.166,16.475,14.936l.1,13.568A9.512,9.512,0,0,1,424.18,486.1Z"/><path d="M169,314.763a6,6,0,0,0-6,6v6.3a6,6,0,0,0,12,0v-6.3A6,6,0,0,0,169,314.763Z"/><path d="M169,340.058a6,6,0,0,0-6,6v66a6,6,0,0,0,12,0v-66A6,6,0,0,0,169,340.058Z"/></svg>
