<?xml version="1.0" encoding="iso-8859-1"?>
<!-- Generator: Adobe Illustrator 19.0.0, SVG Export Plug-In . SVG Version: 6.00 Build 0)  -->
<svg version="1.1" id="Capa_1" xmlns="http://www.w3.org/2000/svg" xmlns:xlink="http://www.w3.org/1999/xlink" x="0px" y="0px"
	 viewBox="0 0 512 512" style="enable-background:new 0 0 512 512;" xml:space="preserve">
<g>
	<g>
		<path d="M437.02,74.98C388.667,26.629,324.38,0,256,0S123.333,26.629,74.98,74.98C26.629,123.333,0,187.62,0,256
			s26.629,132.667,74.98,181.02C123.333,485.371,187.62,512,256,512s132.667-26.629,181.02-74.98
			C485.371,388.667,512,324.38,512,256S485.371,123.333,437.02,74.98z M426.413,426.413C380.894,471.932,320.374,497,256,497
			s-124.894-25.068-170.413-70.587C40.068,380.894,15,320.374,15,256S40.068,131.106,85.587,85.587
			C131.106,40.068,191.626,15,256,15s124.894,25.068,170.413,70.587C471.932,131.106,497,191.626,497,256
			S471.932,380.894,426.413,426.413z"/>
	</g>
</g>
<g>
	<g>
		<path d="M187.9,324.531c-2.704-3.137-7.44-3.488-10.578-0.784c-3.137,2.705-3.488,7.44-0.784,10.578
			c3.47,4.025,3.019,10.123-1.007,13.593c-4.025,3.47-10.123,3.018-13.593-1.007c-2.705-3.137-7.44-3.488-10.578-0.784
			c-3.137,2.705-3.488,7.44-0.784,10.578c4.866,5.645,11.752,8.54,18.678,8.54c5.699,0,11.425-1.962,16.07-5.966
			c4.987-4.297,8-10.278,8.486-16.841C194.296,335.875,192.197,329.515,187.9,324.531z"/>
	</g>
</g>
<g>
	<g>
		<path d="M184.889,206.491c-1.728-9.261-8.434-16.613-17.501-19.188c-3.981-1.13-8.131,1.182-9.263,5.167
			c-1.131,3.984,1.182,8.132,5.167,9.263c3.551,1.008,6.177,3.886,6.853,7.51c0.975,5.226-2.482,10.269-7.707,11.244
			c-4.072,0.76-6.756,4.677-5.996,8.749c0.673,3.606,3.823,6.125,7.364,6.125c0.457,0,0.919-0.042,1.385-0.129
			c6.469-1.208,12.081-4.862,15.801-10.291C184.712,219.512,186.096,212.96,184.889,206.491z"/>
	</g>
</g>
<g>
	<g>
		<path d="M407.563,315.98c-4.175,0-8.109,1.047-11.558,2.888c-0.491-2.847-1.193-5.693-2.126-8.517
			c-1.718-5.2-4.109-9.99-7.022-14.329c1.202,0.073,2.405,0.121,3.609,0.121c13.627-0.001,27.32-4.691,38.427-14.266
			c24.604-21.211,27.365-58.485,6.154-83.089c-2.705-3.137-7.44-3.488-10.578-0.784c-3.137,2.705-3.488,7.44-0.784,10.578
			c15.811,18.34,13.753,46.124-4.587,61.934c-18.34,15.811-46.124,13.752-61.934-4.587c-0.299-0.347-0.579-0.703-0.865-1.056
			c-4.084-5.245-6.052-11.728-5.557-18.405c0.528-7.133,3.802-13.632,9.219-18.302c11.184-9.641,28.124-8.385,37.764,2.797
			c3.47,4.025,3.018,10.123-1.007,13.593c-1.95,1.681-4.436,2.496-7.005,2.312c-2.567-0.19-4.907-1.369-6.588-3.319
			c-2.705-3.137-7.44-3.487-10.578-0.784c-3.137,2.705-3.488,7.44-0.784,10.578c8.871,10.29,24.458,11.445,34.748,2.574
			c10.29-8.87,11.444-24.458,2.574-34.748c-14.333-16.626-39.003-19.174-56.392-6.362c2.357-3.969,5.373-7.635,9.058-10.811
			c10.269-8.853,23.801-12.437,37.126-9.834c4.065,0.793,8.005-1.857,8.799-5.923c0.794-4.065-1.857-8.005-5.923-8.799
			c-11.671-2.281-23.456-0.997-34.072,3.462c2.286-5.604,3.654-11.433,4.137-17.288c2.631,0.961,5.47,1.486,8.43,1.486
			c13.585,0,24.638-11.052,24.638-24.638s-11.052-24.638-24.638-24.638c-7.622,0-14.446,3.48-18.969,8.934
			c-4.124-5.871-9.379-11.087-15.722-15.27c-13.137-8.663-28.863-11.692-44.277-8.528c-11.145,2.287-21.153,7.627-29.122,15.367
			c-2.383-5.691-5.656-11.008-9.733-15.737c-10.275-11.919-24.577-19.124-40.27-20.286c-15.697-1.164-30.9,3.856-42.819,14.131
			c-16.254,14.012-23.409,35.131-19.428,55.672c-3.34,0.05-6.698,0.367-10.049,0.993c-0.407,0.076-0.806,0.172-1.21,0.256
			c0.154-1.111,0.24-2.244,0.24-3.397c0-13.585-11.053-24.638-24.638-24.638c-13.585,0-24.638,11.052-24.638,24.638
			c0,10.551,6.668,19.571,16.01,23.075c-1.25,1.489-2.435,3.047-3.549,4.672c-8.339,12.167-11.769,26.695-9.788,41.207
			c-0.888,0.344-1.77,0.701-2.639,1.087c-29.694,13.172-43.136,48.047-29.963,77.742c7.74,17.448,23.14,29.78,41.4,33.701
			c-2.593,16.514,1.788,34.02,13.533,47.644c11.605,13.461,28.078,20.438,44.68,20.438c8.449,0,16.929-1.815,24.82-5.494
			c5.539,27.944,30.164,47.461,57.752,47.461c3.562,0,7.174-0.326,10.8-1c15.471-2.878,28.896-11.608,37.8-24.583
			c7.124-10.38,10.661-22.482,10.323-34.829c8.307,4.316,17.625,6.676,27.194,6.676c5.568,0,11.221-0.807,16.805-2.476
			c0.547-0.157,1.092-0.325,1.635-0.504c14.646-4.84,26.117-14.914,33.044-27.457c4.504,4.877,10.948,7.938,18.094,7.938
			c13.585,0,24.638-11.052,24.638-24.638S421.149,315.98,407.563,315.98z M380.25,132.823c5.314,0,9.638,4.324,9.638,9.638
			c0,5.314-4.323,9.638-9.638,9.638s-9.638-4.323-9.638-9.638S374.936,132.823,380.25,132.823z M276.466,136.495
			c8.128-12.325,24.769-15.74,37.094-7.613c5.971,3.938,10.051,9.964,11.489,16.97s0.062,14.153-3.876,20.124
			c-2.925,4.437-8.916,5.665-13.352,2.74c-2.149-1.417-3.618-3.586-4.136-6.108c-0.518-2.521-0.022-5.094,1.396-7.243
			c2.28-3.458,1.326-8.109-2.132-10.39c-3.456-2.278-8.109-1.326-10.39,2.132c-3.623,5.494-4.89,12.07-3.567,18.517
			c1.323,6.447,5.078,11.993,10.572,15.615c4.168,2.749,8.871,4.062,13.525,4.062c8.011,0,15.876-3.894,20.606-11.067
			c6.143-9.315,8.291-20.466,6.047-31.397c-2.031-9.895-7.449-18.529-15.366-24.635c4.534,1.206,8.893,3.15,12.925,5.808
			c20.215,13.33,25.816,40.62,12.486,60.835c-6.458,9.792-16.342,16.484-27.832,18.842c-11.489,2.357-23.211,0.1-33.003-6.357
			c-9.792-6.457-16.484-16.341-18.842-27.832c-0.136-0.661-0.547-3.374-0.727-5.038
			C268.512,154.628,270.951,144.858,276.466,136.495z M316.211,253.541c1.321,0.22,2.674,0.34,4.056,0.34
			c4.656,0,9.014-1.299,12.733-3.553c1.559,6.904,4.387,13.593,8.497,19.718c-7.262-0.448-14.721,0.433-22.041,2.852
			c-1.485,0.491-2.927,1.052-4.346,1.647c1.029-4.353,1.589-8.884,1.589-13.546C316.699,258.471,316.521,255.986,316.211,253.541z
			 M310.629,229.243c0-5.314,4.323-9.638,9.638-9.638s9.638,4.323,9.638,9.638s-4.324,9.638-9.638,9.638
			C314.953,238.881,310.629,234.557,310.629,229.243z M279.05,330.335c-11.269-5.874-24.497-8.183-37.93-5.684
			c-4.982,0.927-9.701,2.459-14.095,4.506c-1.974-9.924-6.49-19.265-13.163-27.005c-2.782-3.227-5.846-6.068-9.115-8.538
			c0.902-0.706,1.753-1.472,2.548-2.295c9.971,16.543,27.839,27.8,48.344,28.54c0.711,0.036,1.427,0.054,2.147,0.054
			c8.095,0,15.812-1.643,22.84-4.609C279.465,320.178,278.923,325.226,279.05,330.335z M249.098,373.351
			c1.03,0.132,2.076,0.207,3.141,0.207c9.972,0,18.573-5.959,22.446-14.5c0.15,0.581,0.288,1.168,0.399,1.767
			c2.7,14.516-6.912,28.521-21.428,31.221c-5.223,0.975-10.266-2.487-11.238-7.712C241.512,379.463,244.46,374.754,249.098,373.351z
			 M242.601,348.92c0-5.315,4.324-9.673,9.638-9.638c1.531,0.01,2.345,0.308,2.871,0.437c3.917,1.225,6.767,4.886,6.767,9.201
			c0,5.314-4.323,9.638-9.638,9.638S242.601,354.235,242.601,348.92z M257.785,304.913c-14.764,0-26.776-12.012-26.776-26.776
			c0-14.764,12.012-26.776,26.776-26.776c5.314,0,9.638,4.323,9.638,9.638s-4.324,9.638-9.638,9.638c-4.142,0-7.5,3.358-7.5,7.5
			c0,4.142,3.358,7.5,7.5,7.5c13.585,0,24.638-11.053,24.638-24.638c0-13.585-11.053-24.638-24.638-24.638
			c-21.951,0-39.989,17.021-41.64,38.556c-1.467-4.377-2.274-9.054-2.274-13.918c0-24.214,19.7-43.914,43.914-43.914
			c24.214,0,43.914,19.7,43.914,43.914C301.699,285.213,282,304.913,257.785,304.913z M273.435,204.211
			c-4.987-1.376-10.231-2.126-15.649-2.126c-14.68,0-28.113,5.41-38.439,14.324c0.484-5.344,0.249-10.786-0.762-16.206
			c-0.015-0.081-0.035-0.159-0.051-0.24c13.769-0.153,27.102-5.115,37.739-14.285c0.855-0.737,1.678-1.504,2.486-2.284
			C262.059,191.335,267.048,198.413,273.435,204.211z M187.342,131.966c11.183-9.64,28.125-8.385,37.764,2.797
			c1.681,1.95,2.502,4.438,2.312,7.005s-1.369,4.907-3.319,6.588c-1.951,1.681-4.44,2.5-7.005,2.312
			c-2.567-0.19-4.907-1.369-6.587-3.318c-2.705-3.137-7.44-3.488-10.578-0.784c-3.137,2.705-3.488,7.44-0.784,10.578
			c4.866,5.645,11.752,8.54,18.678,8.54c5.699,0,11.425-1.962,16.07-5.966c4.984-4.297,7.998-10.278,8.484-16.841
			c0.486-6.563-1.613-12.923-5.91-17.907c-14.357-16.653-39.083-19.182-56.476-6.301c2.389-4.007,5.446-7.688,9.141-10.873
			c8.885-7.659,20.222-11.4,31.917-10.533c11.698,0.866,22.358,6.236,30.017,15.121c5.13,5.951,8.549,13.141,9.937,20.819
			c-5.245,9.91-7.504,20.981-6.597,32.126c-2.209,3.327-4.862,6.346-7.927,8.988c-9.194,7.926-21.088,11.629-33.067,10.419
			c-4.411-8.887-11.025-16.556-19.434-22.319c-4.934-3.382-10.258-5.951-15.81-7.685
			C177.352,146.088,180.691,137.699,187.342,131.966z M152.613,167.845c2.718-0.507,5.443-0.758,8.15-0.758
			c8.774,0,17.34,2.636,24.734,7.704c9.675,6.632,16.189,16.634,18.341,28.165c2.152,11.53-0.314,23.209-6.946,32.884
			c-6.632,9.675-16.634,16.189-28.165,18.341c-7.029,1.312-14.151-0.192-20.05-4.235c-5.899-4.043-9.871-10.142-11.184-17.172
			c-1.312-7.031,0.192-14.152,4.235-20.051c2.342-3.417,1.47-8.085-1.946-10.427c-3.417-2.341-8.085-1.469-10.427,1.946
			c-5.706,8.325-8.158,18.209-7.062,28.138c-2.275-4.095-3.908-8.57-4.792-13.309c-2.152-11.53,0.314-23.209,6.946-32.884
			C131.08,176.511,141.082,169.997,152.613,167.845z M199.228,274.209c0,5.315-4.323,9.638-9.638,9.638
			c-5.314,0-9.638-4.324-9.638-9.638c0-5.314,4.323-9.638,9.638-9.638S199.228,268.894,199.228,274.209z M147.592,268.488
			c4.235,0.964,8.574,1.456,12.953,1.456c1.603,0,3.211-0.077,4.821-0.209c-0.268,1.452-0.415,2.946-0.415,4.474
			c0,2.657,0.428,5.215,1.21,7.615c-7.525,0.385-15.003,2.207-22,5.495c0.935-1.435,1.736-2.971,2.366-4.606
			C148.302,278.109,148.652,273.194,147.592,268.488z M114.614,149.959c0-5.314,4.324-9.638,9.638-9.638
			c5.314,0,9.638,4.323,9.638,9.638s-4.324,9.638-9.638,9.638C118.938,159.597,114.614,155.273,114.614,149.959z M91.507,274.493
			c-3.626,9.409-3.733,19.581-0.384,28.982c-3.135-3.441-5.767-7.401-7.726-11.816c-9.819-22.134,0.2-48.13,22.335-57.949
			c0.158-0.07,0.323-0.126,0.483-0.195c2.517,6.126,6.036,11.754,10.439,16.682c-1.05,0.308-2.088,0.682-3.106,1.133
			C103.348,255.855,95.52,264.081,91.507,274.493z M117.311,312.822c-4.963-2.808-8.951-7.153-11.299-12.447
			c-2.9-6.538-3.081-13.813-0.509-20.487c2.572-6.673,7.589-11.946,14.127-14.846c2.354-1.043,4.972-1.108,7.374-0.183
			c2.402,0.926,4.299,2.731,5.344,5.085c1.044,2.353,1.109,4.972,0.183,7.374c-0.926,2.402-2.732,4.3-5.085,5.344
			c-3.787,1.68-5.494,6.111-3.815,9.897c1.126,2.539,3.491,4.137,6.067,4.412C124.553,301.63,120.416,307.005,117.311,312.822z
			 M193.219,377.397c-18.226,11.921-42.791,8.655-57.24-8.105c-0.301-0.35-0.584-0.709-0.872-1.066
			c-8.679-11.169-7.163-27.359,3.67-36.698c4.734-4.082,10.777-6.387,17.014-6.492c4.142-0.07,7.442-3.484,7.373-7.625
			c-0.069-4.099-3.413-7.374-7.497-7.374c-0.042,0-0.086,0-0.129,0.001c-8.659,0.146-17.071,3.012-24.022,8.12
			c2.356-3.965,5.37-7.627,9.051-10.801c18.34-15.812,46.124-13.752,61.934,4.587c6.347,7.363,10.071,16.665,10.584,26.332
			C201.837,348.165,194.568,362.155,193.219,377.397z M288.101,407.42c-6.638,9.671-16.644,16.179-28.176,18.324
			c-11.534,2.148-23.209-0.328-32.88-6.966c-9.671-6.638-16.179-16.644-18.324-28.176c-3.328-17.892,4.752-35.31,19.078-44.741
			c-0.125,1.003-0.197,2.022-0.197,3.059c0,6.41,2.463,12.255,6.489,16.642c-5.276,5.537-7.921,13.439-6.419,21.515
			c2.203,11.84,12.58,20.135,24.211,20.134c1.49,0,3.001-0.136,4.517-0.418c10.971-2.041,20.49-8.231,26.804-17.432
			c5.227-7.617,7.73-16.542,7.283-25.613c0.754,1.023,1.542,2.015,2.356,2.981c0.962,2.489,1.719,5.094,2.225,7.81
			C297.212,386.071,294.738,397.749,288.101,407.42z M351.719,370.533c-0.436,0.144-0.873,0.267-1.31,0.396
			c-6.407,1.768-13.149,1.107-19.128-1.902c-6.389-3.215-11.143-8.726-13.387-15.517c-2.244-6.791-1.709-14.05,1.506-20.438
			c3.215-6.389,8.726-11.143,15.517-13.387c5.045-1.668,10.508,1.081,12.176,6.127c1.668,5.046-1.082,10.508-6.127,12.176
			c-3.933,1.299-6.068,5.541-4.768,9.474c1.299,3.933,5.542,6.068,9.474,4.768c6.249-2.064,11.32-6.439,14.278-12.318
			c2.958-5.878,3.451-12.558,1.386-18.806c-4.262-12.9-18.227-19.926-31.124-15.664c-10.595,3.501-19.193,10.918-24.209,20.887
			c-4.002,7.953-5.333,16.77-3.933,25.39c-1.524-2.472-3.221-4.812-5.072-7.01c-0.266-0.688-0.518-1.386-0.752-2.095
			c-7.597-22.992,4.927-47.877,27.918-55.475c4.558-1.506,9.188-2.221,13.746-2.221c18.432,0,35.638,11.706,41.729,30.139
			C387.234,338.049,374.71,362.935,351.719,370.533z M407.563,350.256c-5.314,0-9.638-4.323-9.638-9.638s4.323-9.638,9.638-9.638
			s9.638,4.324,9.638,9.638C417.201,345.932,412.878,350.256,407.563,350.256z"/>
	</g>
</g>
<g>
	<g>
		<path d="M280.946,62.968c-4.067-0.76-7.99,1.918-8.753,5.99l-2.142,11.425c-0.763,4.07,1.918,7.99,5.99,8.753
			c0.467,0.087,0.932,0.13,1.39,0.13c3.538,0,6.688-2.515,7.363-6.12l2.142-11.425C287.699,67.65,285.018,63.731,280.946,62.968z"/>
	</g>
</g>
<g>
	<g>
		<path d="M323.514,72.406c-2.408-3.371-7.092-4.151-10.462-1.743l-4.999,3.571c-3.37,2.408-4.151,7.092-1.743,10.462
			c1.464,2.05,3.769,3.141,6.109,3.141c1.509,0,3.032-0.454,4.354-1.398l4.998-3.571C325.142,80.46,325.922,75.776,323.514,72.406z"
			/>
	</g>
</g>
<g>
	<g>
		<path d="M339.551,412.81l-4.283-7.141c-2.131-3.552-6.738-4.706-10.29-2.573c-3.552,2.131-4.704,6.738-2.573,10.29l4.284,7.141
			c1.406,2.344,3.89,3.643,6.438,3.643c1.313,0,2.643-0.345,3.851-1.07C340.53,420.969,341.682,416.362,339.551,412.81z"/>
	</g>
</g>
<g>
	<g>
		<path d="M361.199,408.125l-4.285-1.428c-3.929-1.311-8.177,0.814-9.486,4.744c-1.309,3.93,0.814,8.177,4.744,9.486l4.285,1.428
			c0.787,0.262,1.586,0.387,2.372,0.387c3.141,0,6.067-1.988,7.114-5.131C367.252,413.681,365.128,409.434,361.199,408.125z"/>
	</g>
</g>
<g>
	<g>
		<path d="M177.265,409.652c-2.297-3.446-6.953-4.377-10.401-2.081l-6.427,4.284c-3.446,2.298-4.378,6.954-2.081,10.401
			c1.445,2.168,3.824,3.341,6.248,3.341c1.43,0,2.875-0.408,4.153-1.26l6.427-4.284C178.63,417.755,179.562,413.099,177.265,409.652
			z"/>
	</g>
</g>
<g>
	<g>
		<path d="M88.798,183.894c-2.751-3.096-7.492-3.376-10.588-0.623l-6.427,5.712c-3.096,2.751-3.375,7.492-0.623,10.588
			c1.482,1.668,3.54,2.518,5.609,2.518c1.772,0,3.551-0.625,4.979-1.895l6.427-5.712C91.271,191.731,91.55,186.99,88.798,183.894z"
			/>
	</g>
</g>
<g>
	<g>
		<path d="M444.822,297.111c-2.929-2.928-7.678-2.928-10.607,0.001l-2.142,2.143c-2.929,2.929-2.928,7.678,0.001,10.606
			c1.464,1.464,3.383,2.196,5.303,2.196c1.92,0,3.839-0.732,5.304-2.197l2.142-2.143
			C447.752,304.788,447.751,300.039,444.822,297.111z"/>
	</g>
</g>
<g>
</g>
<g>
</g>
<g>
</g>
<g>
</g>
<g>
</g>
<g>
</g>
<g>
</g>
<g>
</g>
<g>
</g>
<g>
</g>
<g>
</g>
<g>
</g>
<g>
</g>
<g>
</g>
<g>
</g>
</svg>
